<?xml version="1.0" standalone="no"?>
<!DOCTYPE svg PUBLIC "-//W3C//DTD SVG 20010904//EN"
 "http://www.w3.org/TR/2001/REC-SVG-20010904/DTD/svg10.dtd">
<svg version="1.0" xmlns="http://www.w3.org/2000/svg"
 width="980.000000pt" height="980.000000pt" viewBox="0 0 980.000000 980.000000"
 preserveAspectRatio="xMidYMid meet">

<g transform="translate(0.000000,980.000000) scale(0.100000,-0.100000)"
fill="#000000" stroke="none">
<path d="M1000 9794 c-214 -23 -381 -82 -520 -184 -83 -62 -264 -248 -314
-323 -109 -166 -177 -436 -160 -636 14 -172 70 -356 143 -467 68 -105 264
-307 1754 -1803 807 -811 1467 -1477 1467 -1481 0 -3 -640 -649 -1423 -1436
-1313 -1320 -1683 -1698 -1782 -1818 -79 -97 -165 -391 -165 -566 0 -130 59
-368 122 -495 41 -81 106 -161 229 -280 153 -148 221 -190 394 -244 118 -36
255 -61 335 -61 120 0 347 52 471 108 116 53 164 99 1997 1921 l1353 1345 337
-335 c185 -184 825 -821 1422 -1415 1057 -1051 1432 -1417 1516 -1475 123 -85
422 -158 594 -145 216 16 434 92 565 196 66 53 233 222 282 285 93 122 183
413 183 595 0 115 -40 296 -97 441 -55 139 -34 117 -1932 2027 l-1344 1353
339 342 c187 188 859 864 1495 1502 635 638 1206 1216 1267 1285 156 173 216
299 257 534 19 113 19 189 -1 307 -32 190 -98 356 -184 464 -53 66 -222 233
-285 282 -122 93 -413 183 -595 183 -175 0 -470 -87 -567 -166 -119 -98 -501
-472 -1817 -1782 -787 -782 -1433 -1421 -1437 -1420 -4 2 -670 662 -1480 1468
-1497 1488 -1698 1683 -1803 1751 -75 49 -198 97 -307 119 -89 18 -247 31
-309 24z"/>
</g>
</svg>
